#!OML:ASF E:\emotionWalksFemale\Project 1\Capture day 1\Session 1\Female1.ASF
:FULLY-SPECIFIED
:DEGREES
1191
root 8.40515 15.6158 -15.1671 179.807 -5.30272 -181.951
lowerback 7.45505 0.460588 -1.71159
upperback -5.57065 0.168693 -0.854185
thorax -10.141 0.0963641 0.0334323
lowerneck -6.42842 -4.45305 -5.97938
upperneck 4.45464 -5.60098 3.07548
head 2.85269 -2.79322 1.79156
rclavicle 2.05121e-014 9.14409e-015
rhumerus -43.605 7.33626 -88.8928
rradius 29.5462
rwrist 20.3703
rhand -0.463702 -49.3028
rfingers 7.12502
rthumb 25.1462 -77.6666
lclavicle 2.05121e-014 9.14409e-015
lhumerus -53.1468 -5.38024 88.4779
lradius 35.1613
lwrist -19.495
lhand -6.43142 -33.4297
lfingers 7.12502
lthumb 19.4176 -4.37925
rfemur -16.3568 28.9018 17.234
rtibia 18.0124
rfoot -26.0971 -39.9141
rtoes 22.9334
lfemur 9.09999 -5.72163 -27.765
ltibia 25.288
lfoot -8.88314 3.42652
ltoes -26.8311
1192
root 8.44024 15.6306 -15.253 179.777 -5.10878 -181.826
lowerback 7.47163 0.49185 -1.75669
upperback -5.62334 0.207858 -0.783382
thorax -10.2107 0.120955 0.127844
lowerneck -6.50924 -4.46938 -6.14594
upperneck 4.50516 -5.61213 3.21245
head 2.8984 -2.79718 1.86494
rclavicle 1.26849e-014 1.88845e-015
rhumerus -43.5806 7.65815 -89.081
rradius 29.5736
rwrist 20.4552
rhand -0.363562 -49.3525
rfingers 7.12502
rthumb 25.2421 -77.7028
lclavicle 1.26849e-014 1.88845e-015
lhumerus -53.3218 -5.15168 88.0608
lradius 35.1158
lwrist -19.2628
lhand -5.49694 -32.9065
lfingers 7.12502
lthumb 20.3159 -3.94909
rfemur -15.8953 28.5772 17.7513
rtibia 17.7236
rfoot -24.9593 -39.5019
rtoes 22.9706
lfemur 8.98263 -5.48371 -27.3656
ltibia 25.8451
lfoot -8.46666 2.96386
ltoes -25.0696
1193
root 8.47395 15.6402 -15.3417 179.726 -4.95403 -181.75
lowerback 7.50057 0.502097 -1.83424
upperback -5.72799 0.206428 -0.737363
thorax -10.3456 0.12589 0.220479
lowerneck -6.42946 -4.38633 -6.0234
upperneck 4.59946 -5.51002 3.07025
head 2.89921 -2.75036 1.80198
rclavicle 1.61388e-014 1.78906e-015
rhumerus -43.6842 7.86917 -89.2399
rradius 29.7095
rwrist 20.7199
rhand -0.135376 -49.3937
rfingers 7.12502
rthumb 25.4607 -77.7131
lclavicle 1.61388e-014 1.78906e-015
lhumerus -53.5875 -4.86496 87.51
lradius 34.8082
lwrist -20.0336
lhand -6.10175 -33.5102
lfingers 7.12502
lthumb 19.7345 -4.49198
rfemur -15.3621 27.9894 18.276
rtibia 17.441
rfoot -22.9855 -39.2056
rtoes 20.6785
lfemur 8.96844 -5.15902 -26.9904
ltibia 26.4004
lfoot -7.81446 2.46828
ltoes -23.7759
1194
root 8.50401 15.6447 -15.4355 179.594 -4.90048 -181.693
lowerback 7.48717 0.495456 -1.84168
upperback -5.78077 0.194019 -0.713697
thorax -10.3963 0.120286 0.252058
lowerneck -5.98303 -4.20135 -6.33011
upperneck 4.31949 -5.29192 3.5832
head 2.74201 -2.63337 2.04764
rclavicle 1.48095e-014 -1.53064e-014
rhumerus -43.8408 8.18882 -89.4872
rradius 29.9685
rwrist 20.3196
rhand -0.178665 -49.4924
rfingers 7.12502
rthumb 25.4192 -77.8176
lclavicle 1.48095e-014 -1.53064e-014
lhumerus -53.868 -4.91407 87.2717
lradius 34.7988
lwrist -20.0557
lhand -5.43576 -33.0723
lfingers 7.12502
lthumb 20.3747 -4.12113
rfemur -14.7305 27.2761 18.8375
rtibia 17.2919
rfoot -21.5789 -38.7819
rtoes 19.5853
lfemur 9.12665 -4.88873 -26.664
ltibia 26.8996
lfoot -7.13491 1.958
ltoes -22.5435
1195
root 8.53315 15.6526 -15.5225 179.544 -4.88007 -181.573
lowerback 7.44478 0.510624 -1.69553
upperback -5.81517 0.230286 -0.71118
thorax -10.4084 0.126328 0.166986
lowerneck -6.86886 -4.31894 -6.10998
upperneck 5.31827 -5.40302 3.14492
head 3.23073 -2.69987 1.83919
rclavicle -1.81391e-015 1.09332e-015
rhumerus -43.9206 8.53161 -89.7527
rradius 30.2627
rwrist 19.7069
rhand -0.256053 -49.7012
rfingers 7.12502
rthumb 25.3451 -78.037
lclavicle -1.81391e-015 1.09332e-015
lhumerus -54.0239 -5.10456 87.1283
lradius 34.8259
lwrist -19.7665
lhand -4.53009 -32.4789
lfingers 7.12502
lthumb 21.2449 -3.62318
rfemur -14.3395 26.4233 19.3977
rtibia 17.3659
rfoot -20.7917 -38.0544
rtoes 20.0173
lfemur 9.15002 -4.68209 -26.2782
ltibia 27.3257
lfoot -6.3742 1.58173
ltoes -21.0678
1196
root 8.56198 15.6603 -15.6127 179.48 -4.84314 -181.541
lowerback 7.4164 0.513496 -1.66063
upperback -5.81625 0.234376 -0.748195
thorax -10.3922 0.123545 0.107327
lowerneck -7.42434 -4.38364 -5.9197
upperneck 5.83836 -5.46651 2.9121
head 3.50437 -2.73603 1.71242
rclavicle 5.04416e-015 1.68967e-015
rhumerus -43.8745 8.64433 -89.9261
rradius 30.4982
rwrist 19.6643
rhand -0.246711 -49.715
rfingers 7.12502
rthumb 25.354 -78.0495
lclavicle 5.04416e-015 1.68967e-015
lhumerus -54.125 -5.06298 86.7176
lradius 34.8384
lwrist -19.961
lhand -4.33698 -32.5248
lfingers 7.12502
lthumb 21.4303 -3.6901
rfemur -13.9232 25.3365 19.9036
rtibia 17.5001
rfoot -20.1964 -37.0172
rtoes 20.3253
lfemur 9.21403 -4.45212 -25.997
ltibia 27.7678
lfoot -5.66643 1.32777
ltoes -19.1153
1197
root 8.59064 15.6622 -15.708 179.378 -4.82533 -181.606
lowerback 7.26248 0.476745 -1.78021
upperback -5.88931 0.158834 -0.788401
thorax -10.3811 0.089994 0.144775
lowerneck -6.9309 -4.29243 -5.97328
upperneck 5.67967 -5.38207 3.09246
head 3.35896 -2.69201 1.79613
rclavicle -6.63444e-015 -2.28602e-015
rhumerus -44.0692 8.88205 -90.2241
rradius 30.7379
rwrist 19.4535
rhand -0.2738 -49.7271
rfingers 7.12502
rthumb 25.3281 -78.0653
lclavicle -6.63444e-015 -2.28602e-015
lhumerus -54.5545 -4.98104 86.2985
lradius 35.0166
lwrist -20.1831
lhand -4.1862 -32.6668
lfingers 7.12502
lthumb 21.5751 -3.84862
rfemur -13.3781 24.6339 20.2947
rtibia 17.5578
rfoot -19.9231 -36.2628
rtoes 20.9635
lfemur 9.34569 -4.21344 -25.831
ltibia 28.303
lfoot -5.11459 0.995442
ltoes -18.1331
1198
root 8.62308 15.6631 -15.7966 179.284 -4.86011 -181.522
lowerback 7.2352 0.463759 -1.77137
upperback -5.84578 0.151574 -0.750197
thorax -10.316 0.0887267 0.182034
lowerneck -7.38124 -4.32318 -5.83958
upperneck 5.98693 -5.39293 2.81481
head 3.53689 -2.70373 1.66992
rclavicle 1.0461e-014 -2.18663e-015
rhumerus -43.8825 9.2698 -90.4147
rradius 30.8631
rwrist 18.9884
rhand -0.13363 -49.9093
rfingers 7.12502
rthumb 25.4624 -78.2284
lclavicle 1.0461e-014 -2.18663e-015
lhumerus -54.1945 -4.87104 85.9648
lradius 34.387
lwrist -20.4953
lhand -4.37337 -32.824
lfingers 7.12502
lthumb 21.3954 -3.98535
rfemur -12.8749 24.4709 20.7836
rtibia 17.583
rfoot -19.5911 -36.0729
rtoes 21.5557
lfemur 9.33918 -4.00955 -25.4635
ltibia 28.9267
lfoot -4.42053 0.649027
ltoes -17.5808
1199
root 8.65903 15.6675 -15.884 179.208 -4.93918 -181.267
lowerback 7.21375 0.440363 -1.66288
upperback -5.89647 0.139072 -0.658395
thorax -10.3587 0.0783865 0.221393
lowerneck -7.3091 -4.28558 -5.80719
upperneck 6.01705 -5.3472 2.75899
head 3.5275 -2.68361 1.64914
rclavicle -9.19379e-016 0
rhumerus -43.9524 9.58837 -90.6031
rradius 31.2103
rwrist 18.4686
rhand 0.388119 -50.4016
rfingers 7.12502
rthumb 25.9621 -78.6484
lclavicle -9.19379e-016 0
lhumerus -54.1839 -5.09565 85.881
lradius 34.2136
lwrist -20.3212
lhand -4.21095 -32.6321
lfingers 7.12502
lthumb 21.5514 -3.81116
rfemur -12.4099 24.5001 21.4175
rtibia 17.5095
rfoot -18.8833 -36.2561
rtoes 21.6744
lfemur 9.20621 -3.74178 -24.8478
ltibia 29.6476
lfoot -3.52514 0.336106
ltoes -18.2445
1200
root 8.69095 15.674 -15.9724 179.213 -5.05576 -181.059
lowerback 7.21718 0.376513 -1.50533
upperback -5.92464 0.0723 -0.634471
thorax -10.3899 0.0354344 0.169251
lowerneck -7.56971 -4.23923 -5.80963
upperneck 6.14531 -5.28288 2.91074
head 3.62645 -2.64476 1.70023
rclavicle 5.51627e-015 -1.19271e-015
rhumerus -43.9091 9.92648 -90.8678
rradius 31.8129
rwrist 17.6635
rhand 1.1317 -51.1476
rfingers 7.12502
rthumb 26.6739 -79.2881
lclavicle 5.51627e-015 -1.19271e-015
lhumerus -53.974 -5.28634 85.684
lradius 34.106
lwrist -20.0861
lhand -3.60835 -32.4158
lfingers 7.12502
lthumb 22.13 -3.66234
rfemur -11.9481 24.2705 21.962
rtibia 17.2686
rfoot -18.2048 -36.2306
rtoes 22.1541
lfemur 8.95592 -3.44838 -24.2973
ltibia 30.4687
lfoot -2.57983 0.00941916
ltoes -19.7066
1201
root 8.72082 15.6781 -16.06 179.212 -5.18034 -180.866
lowerback 7.23846 0.311545 -1.33174
upperback -6.0441 -0.00443175 -0.620011
thorax -10.5341 -0.0165145 0.0997999
lowerneck -7.19622 -4.15596 -6.12802
upperneck 5.95309 -5.2011 3.44693
head 3.51699 -2.59325 1.95027
rclavicle 1.02623e-014 1.45113e-014
rhumerus -44.0141 10.2401 -91.1539
rradius 32.1931
rwrist 17.2017
rhand 1.5918 -51.5154
rfingers 7.12502
rthumb 27.1141 -79.5881
lclavicle 1.02623e-014 1.45113e-014
lhumerus -53.9595 -5.23255 85.3323
lradius 34.0113
lwrist -20.2858
lhand -3.11328 -32.2133
lfingers 7.12502
lthumb 22.6052 -3.51689
rfemur -11.4399 23.8936 22.5058
rtibia 17.0004
rfoot -17.945 -35.9703
rtoes 23.2265
lfemur 8.67869 -3.23574 -23.7879
ltibia 31.3106
lfoot -1.76501 -0.255873
ltoes -20.0595
1202
root 8.75378 15.68 -16.1485 179.151 -5.27832 -180.662
lowerback 7.21681 0.267396 -1.23132
upperback -6.12439 -0.0543614 -0.572166
thorax -10.6098 -0.048012 0.103089
lowerneck -7.48671 -4.14504 -5.84972
upperneck 6.459 -5.18221 3.09126
head 3.72443 -2.59381 1.77533
rclavicle -1.31446e-014 2.78299e-015
rhumerus -44.1545 10.5638 -91.4254
rradius 32.4044
rwrist 16.7865
rhand 1.36476 -51.483
rfingers 7.12502
rthumb 26.8969 -79.5893
lclavicle -1.31446e-014 2.78299e-015
lhumerus -53.9902 -5.17174 85.0474
lradius 34.0039
lwrist -20.56
lhand -2.84175 -31.859
lfingers 7.12502
lthumb 22.8658 -3.19463
rfemur -10.8859 23.5199 23.0948
rtibia 16.7173
rfoot -17.3635 -35.7674
rtoes 23.6696
lfemur 8.43263 -3.03313 -23.2466
ltibia 32.1689
lfoot -1.0939 -0.441061
ltoes -20.0434
1203
root 8.78511 15.6815 -16.2367 179.055 -5.3948 -180.607
lowerback 7.13367 0.232454 -1.23124
upperback -6.1093 -0.0988685 -0.563995
thorax -10.5423 -0.0693708 0.119117
lowerneck -7.90521 -4.25182 -5.84496
upperneck 6.90805 -5.29839 2.94656
head 3.966 -2.65823 1.71051
rclavicle 1.15295e-014 2.5842e-015
rhumerus -44.2029 10.9477 -91.6442
rradius 32.6546
rwrist 16.2287
rhand 0.922299 -51.5815
rfingers 7.12502
rthumb 26.4735 -79.7523
lclavicle 1.15295e-014 2.5842e-015
lhumerus -53.8325 -5.22205 84.87
lradius 33.9997
lwrist -20.9359
lhand -2.90185 -31.5909
lfingers 7.12502
lthumb 22.8082 -2.91936
rfemur -10.2484 22.9208 23.5513
rtibia 16.3566
rfoot -16.009 -35.4906
rtoes 23.0005
lfemur 8.20722 -2.8213 -22.8718
ltibia 33.0775
lfoot -0.382446 -0.659113
ltoes -19.7975
1204
root 8.81533 15.6846 -16.3202 178.96 -5.53684 -180.43
lowerback 7.11617 0.197356 -1.05688
upperback -6.1094 -0.122498 -0.545085
thorax -10.5311 -0.0926658 0.0452558
lowerneck -8.0195 -4.35978 -5.89934
upperneck 7.0378 -5.42735 2.88615
head 4.04137 -2.72646 1.68894
rclavicle -8.64713e-015 5.96354e-016
rhumerus -44.1494 11.1203 -91.7429
rradius 32.7377
rwrist 16.1916
rhand 0.899297 -51.5775
rfingers 7.12502
rthumb 26.4515 -79.7516
lclavicle -8.64713e-015 5.96354e-016
lhumerus -53.6221 -5.22616 84.5966
lradius 34.0609
lwrist -21.5118
lhand -2.84539 -31.6606
lfingers 7.12502
lthumb 22.8623 -2.99572
rfemur -9.65445 22.6588 24.1035
rtibia 16.059
rfoot -15.0377 -35.3688
rtoes 23.3198
lfemur 7.92148 -2.60033 -22.3493
ltibia 34.0178
lfoot 0.546614 -0.937666
ltoes -18.7781
1205
root 8.85059 15.6862 -16.4047 178.892 -5.73812 -180.1
lowerback 7.0897 0.128877 -0.838083
upperback -6.15633 -0.184666 -0.470589
thorax -10.5665 -0.136625 0.0124197
lowerneck -7.33391 -4.2602 -6.04411
upperneck 6.38684 -5.33003 3.1675
head 3.6879 -2.66962 1.82954
rclavicle -5.91384e-015 3.37934e-015
rhumerus -44.1208 11.1328 -91.7641
rradius 32.882
rwrist 16.3277
rhand 1.9041 -51.6596
rfingers 7.12502
rthumb 27.4129 -79.6854
lclavicle -5.91384e-015 3.37934e-015
lhumerus -53.4295 -5.25487 84.3556
lradius 34.0166
lwrist -21.8294
lhand -2.66038 -31.7669
lfingers 7.12502
lthumb 23.0399 -3.12408
rfemur -9.1354 22.6834 24.8044
rtibia 15.8636
rfoot -14.8142 -35.4014
rtoes 25.4361
lfemur 7.58459 -2.38604 -21.6
ltibia 34.9879
lfoot 1.64584 -1.26433
ltoes -16.733
